HIERARCHY
ROOT Hips
{
	OFFSET 0.000000 0.000000 0.000000
	CHANNELS 6 Xposition Yposition Zposition Xrotation Yrotation Zrotation
	JOINT LeftUpLeg_virtual
	{
		OFFSET 0.000000 0.000000 0.000000
		CHANNELS 3 Xrotation Yrotation Zrotation
		JOINT LeftUpLeg
		{
			OFFSET 13.026900 -6.336304 -1.092800
			CHANNELS 3 Xrotation Yrotation Zrotation
			JOINT LeftLeg
			{
				OFFSET 0.524474 -46.096886 9.782700
				CHANNELS 3 Xrotation Yrotation Zrotation
				JOINT LeftFoot
				{
					OFFSET -0.524474 -53.427422 -12.948200
					CHANNELS 3 Xrotation Yrotation Zrotation
					JOINT LeftToeBase
					{
						OFFSET 0.192200 -14.009700 16.364100
						CHANNELS 3 Xrotation Yrotation Zrotation
						JOINT LeftToe_End
						{
							OFFSET -1.784700 -0.561700 9.474800
							CHANNELS 3 Xrotation Yrotation Zrotation
							End Site
							{
								OFFSET 0 0 0
							}
						}
					}
				}
			}
		}
	}
	JOINT RightUpLeg_virtual
	{
		OFFSET 0.000000 0.000000 0.000000
		CHANNELS 3 Xrotation Yrotation Zrotation
		JOINT RightUpLeg
		{
			OFFSET -12.883000 -6.336304 -1.092800
			CHANNELS 3 Xrotation Yrotation Zrotation
			JOINT RightLeg
			{
				OFFSET -0.524587 -46.096825 9.782800
				CHANNELS 3 Xrotation Yrotation Zrotation
				JOINT RightFoot
				{
					OFFSET 0.524587 -53.427383 -12.948300
					CHANNELS 3 Xrotation Yrotation Zrotation
					JOINT RightToeBase
					{
						OFFSET -0.192200 -14.009700 16.364100
						CHANNELS 3 Xrotation Yrotation Zrotation
						JOINT RightToe_End
						{
							OFFSET 1.784700 -0.561700 9.474800
							CHANNELS 3 Xrotation Yrotation Zrotation
							End Site
							{
								OFFSET 0 0 0
							}
						}
					}
				}
			}
		}
	}
	JOINT Spine_virtual
	{
		OFFSET 0.000000 0.000000 0.000000
		CHANNELS 3 Xrotation Yrotation Zrotation
		JOINT Spine
		{
			OFFSET 0.072000 7.257294 -0.789700
			CHANNELS 3 Xrotation Yrotation Zrotation
			JOINT Spine1
			{
				OFFSET 0.000000 12.508769 -0.658067
				CHANNELS 3 Xrotation Yrotation Zrotation
				JOINT Spine1_split
				{
					OFFSET 0.000000 12.508769 -0.658067
					CHANNELS 3 Xrotation Yrotation Zrotation
					JOINT Spine2
					{
						OFFSET 0.000000 12.508769 -0.658067
						CHANNELS 3 Xrotation Yrotation Zrotation
						JOINT Neck_virtual
						{
							OFFSET 0.000000 0.000000 0.000000
							CHANNELS 3 Xrotation Yrotation Zrotation
							JOINT Neck
							{
								OFFSET 0.000000 14.033295 7.520400
								CHANNELS 3 Xrotation Yrotation Zrotation
								JOINT Head
								{
									OFFSET 0.000000 8.198502 5.703100
									CHANNELS 3 Xrotation Yrotation Zrotation
									JOINT HeadTop_End
									{
										OFFSET 0.000000 17.760803 13.332701
										CHANNELS 3 Xrotation Yrotation Zrotation
										End Site
										{
											OFFSET 0 0 0
										}
									}
								}
							}
						}
						JOINT LeftShoulder_virtual
						{
							OFFSET 0.000000 0.000000 0.000000
							CHANNELS 3 Xrotation Yrotation Zrotation
							JOINT LeftShoulder
							{
								OFFSET 6.292450 5.785301 -0.669000
								CHANNELS 3 Xrotation Yrotation Zrotation
								JOINT LeftShoulder_split
								{
									OFFSET 6.292450 5.785301 -0.669000
									CHANNELS 3 Xrotation Yrotation Zrotation
									JOINT LeftArm
									{
										OFFSET 13.907140 -6.093903 1.965100
										CHANNELS 3 Xrotation Yrotation Zrotation
										JOINT LeftForeArm
										{
											OFFSET 34.140198 0.000000 0.000000
											CHANNELS 3 Xrotation Yrotation Zrotation
											JOINT LeftHand
											{
												OFFSET 40.960209 0.000000 0.000000
												CHANNELS 3 Xrotation Yrotation Zrotation
												End Site
												{
													OFFSET 0 0 0
												}
											}
										}
									}
								}
							}
						}
						JOINT RightShoulder_virtual
						{
							OFFSET 0.000000 0.000000 0.000000
							CHANNELS 3 Xrotation Yrotation Zrotation
							JOINT RightShoulder
							{
								OFFSET -6.292450 5.785301 -0.669000
								CHANNELS 3 Xrotation Yrotation Zrotation
								JOINT RightShoulder_split
								{
									OFFSET -6.292450 5.785301 -0.669000
									CHANNELS 3 Xrotation Yrotation Zrotation
									JOINT RightArm
									{
										OFFSET -13.907140 -6.093903 1.965100
										CHANNELS 3 Xrotation Yrotation Zrotation
										JOINT RightForeArm
										{
											OFFSET -34.140198 0.000000 0.000000
											CHANNELS 3 Xrotation Yrotation Zrotation
											JOINT RightHand
											{
												OFFSET -40.960209 0.000000 0.000000
												CHANNELS 3 Xrotation Yrotation Zrotation
												End Site
												{
													OFFSET 0 0 0
												}
											}
										}
									}
								}
							}
						}
					}
				}
			}
		}
	}
}
MOTION
Frames: 6
Frame Time: 0.03333333
-9.676482 88.026627 -23.560795 0.000000 0.000000 0.000000 12.588061 -23.268363 7.513454 -69.798420 -7.839775 11.267025 63.355148 -13.773672 7.918029 4.852684 -4.926681 -22.588194 4.089197 -1.324541 0.902268 0.000000 0.000000 0.000000 11.042026 -20.665137 7.122477 -52.188509 5.485643 -7.523644 55.909490 14.601037 -6.310972 -12.879153 1.387331 13.283302 -1.513194 2.637211 -4.067733 0.000000 0.000000 0.000000 13.405317 -18.130927 5.836280 -5.653224 10.074663 2.113350 3.922871 13.708862 2.362679 0.159964 -2.360208 0.448308 0.000000 0.000000 0.000000 12.420017 16.345018 3.594473 -6.902845 33.564280 4.244866 -48.807500 -15.703187 -56.846787 0.000000 0.000000 0.000000 5.985102 13.426120 4.128596 -1.338007 -10.309852 7.149643 -13.666544 1.925364 -3.334780 -54.781768 1.692009 -60.831420 159.513631 -75.901440 170.647509 0.000000 0.000000 0.000000 2.546905 11.088128 4.861955 -15.355664 -7.600910 -27.894549 -76.689323 -19.120922 -5.304159 -94.979019 29.175204 125.437066 -10.869626 8.342731 17.200170 0.000000 0.000000 0.000000 
-10.550775 89.304527 -29.023823 0.000000 0.000000 0.000000 12.360989 -20.721703 6.519227 -70.387053 -5.789183 9.880801 64.313041 -13.345145 8.207756 4.742886 -5.680326 -24.217872 2.542642 -1.734839 1.912880 0.000000 0.000000 0.000000 9.229725 -24.225096 6.450470 -50.068432 2.289135 -8.236517 54.982220 15.218584 -6.493783 -12.685847 2.474854 16.463124 0.176451 2.847664 -5.113755 0.000000 0.000000 0.000000 14.568864 -16.520600 6.122411 -6.776403 9.934659 3.094180 3.951124 13.622945 2.324174 0.122246 -2.551381 0.567701 0.000000 0.000000 0.000000 12.155496 16.257974 3.696158 -6.433000 33.547167 4.413553 -49.924035 -16.480152 -56.162887 0.000000 0.000000 0.000000 5.855600 13.314919 3.920550 -1.211243 -10.985780 7.492633 -13.470836 0.873479 -2.051246 -56.382757 0.981664 -61.611243 159.701940 -75.808119 170.928503 0.000000 0.000000 0.000000 2.621477 11.093907 5.017851 -15.002499 -7.117492 -27.347374 -79.297977 -20.329059 -8.219896 -93.947367 29.474250 124.382867 -10.915167 8.859183 17.484132 0.000000 0.000000 0.000000 
-12.138025 91.760185 -36.171383 0.000000 0.000000 0.000000 12.206866 -19.172472 5.833778 -69.748410 -2.416970 7.590993 62.799771 -13.198978 7.986974 5.130859 -7.021622 -24.731113 0.827265 -2.348798 3.016558 0.000000 0.000000 0.000000 8.285300 -26.777453 5.916764 -46.617397 -1.857976 -8.747142 53.498915 15.342849 -6.294981 -12.941161 2.601934 20.423910 -0.547720 3.040813 -6.268467 0.000000 0.000000 0.000000 15.775830 -15.839045 6.443766 -7.757977 10.117005 4.426177 4.214196 13.428688 2.134442 0.162018 -2.485663 0.590517 0.000000 0.000000 0.000000 11.873237 15.953799 3.728885 -6.464276 32.611886 5.194216 -52.229845 -18.493726 -56.392330 0.000000 0.000000 0.000000 5.709130 13.014493 3.846771 -1.194305 -11.498186 7.558065 -12.415451 0.109226 -0.985654 -58.294804 0.334290 -62.690905 158.557610 -76.566093 169.584622 0.000000 0.000000 0.000000 2.749520 10.860296 5.227625 -14.268168 -5.438053 -26.300373 -80.506545 -20.171990 -10.433618 -92.567361 30.911138 122.701097 -11.332893 9.814750 18.084191 0.000000 0.000000 0.000000 
-13.918698 94.456635 -43.990620 0.000000 0.000000 0.000000 12.479946 -19.190864 5.828214 -67.812625 0.978459 4.864510 59.127049 -13.189216 7.032764 5.842935 -8.289807 -23.852730 -0.900641 -2.985780 3.754708 0.000000 0.000000 0.000000 8.406126 -27.690920 5.747632 -42.178775 -5.744967 -8.987130 52.592194 14.208486 -5.644550 -14.505831 0.666705 22.669760 -2.189135 3.116763 -7.011043 0.000000 0.000000 0.000000 16.564640 -16.582499 6.729551 -8.149409 10.540201 5.592572 4.651423 13.193291 1.925548 0.211056 -2.108497 0.469360 0.000000 0.000000 0.000000 11.560675 15.552114 3.757658 -7.046314 30.933278 6.411177 -55.217472 -21.326362 -57.720604 0.000000 0.000000 0.000000 5.633218 12.594329 3.987989 -1.249844 -11.757703 7.505469 -11.494251 0.257995 -0.324274 -60.260826 -0.104147 -63.831950 156.109178 -78.099627 166.684879 0.000000 0.000000 0.000000 2.961959 10.529395 5.472606 -13.270415 -2.714040 -24.980452 -79.694996 -18.358140 -11.161738 -91.084022 33.326201 120.595814 -11.833416 10.610828 18.802848 0.000000 0.000000 0.000000 
-15.677238 96.429550 -51.994907 0.000000 0.000000 0.000000 12.851278 -21.278333 6.559631 -65.186793 3.111952 2.422765 54.934593 -13.019315 5.437090 6.521092 -8.975535 -21.789097 -2.828745 -3.421552 3.688081 0.000000 0.000000 0.000000 9.489661 -27.209606 6.155144 -37.563390 -8.274437 -9.337598 53.805310 11.537317 -4.493385 -17.181904 -3.575703 21.346407 -1.939926 2.880108 -6.869345 0.000000 0.000000 0.000000 16.357352 -18.297124 6.964041 -7.892406 11.160953 6.202152 5.207129 12.990016 1.821872 0.279110 -1.600739 0.338714 0.000000 0.000000 0.000000 11.215583 15.184598 3.823878 -7.826641 28.775802 7.778735 -58.117670 -24.291793 -59.992024 0.000000 0.000000 0.000000 5.700922 12.160048 4.329542 -1.364085 -11.753220 7.452831 -10.816143 1.517805 0.168374 -62.113638 -0.487770 -64.887849 151.944265 -80.089419 161.815924 0.000000 0.000000 0.000000 3.140997 10.248129 5.779059 -12.267889 0.478692 -23.582961 -76.808817 -15.681382 -10.823732 -89.686087 36.385483 118.391234 -12.132314 10.867747 19.441083 0.000000 0.000000 0.000000 
-17.022669 96.958130 -59.908962 0.000000 0.000000 0.000000 13.089641 -24.590713 7.676273 -63.064257 2.796237 1.177970 52.550048 -12.800256 3.654526 6.621481 -8.759683 -19.348941 -4.948773 -3.463361 2.661671 0.000000 0.000000 0.000000 10.405283 -26.474177 6.909978 -34.392058 -9.006020 -10.556010 57.642214 8.023119 -2.940475 -19.633631 -9.164949 17.267919 0.537069 2.426623 -5.815070 0.000000 0.000000 0.000000 14.827735 -20.874472 7.047602 -7.119264 11.782231 6.005862 5.704796 12.846396 1.870067 0.331430 -1.073497 0.221999 0.000000 0.000000 0.000000 10.914651 14.992064 3.904253 -8.459439 26.616953 8.942318 -60.288229 -26.727015 -62.826491 0.000000 0.000000 0.000000 5.945843 11.827256 4.756201 -1.484817 -11.600995 7.497577 -10.323283 3.318801 0.626830 -63.583624 -0.990177 -65.612115 144.421645 -82.286499 153.373441 0.000000 0.000000 0.000000 3.181604 10.116892 6.163856 -11.419174 3.498175 -22.265845 -73.518339 -14.168881 -9.580997 -88.748794 39.671214 116.548709 -11.978727 10.329711 19.816464 0.000000 0.000000 0.000000 
